<svg width="1440" height="2252" viewBox="0 0 1440 2252" fill="none" xmlns="http://www.w3.org/2000/svg">
<g opacity="0.04">
<path d="M879.987 1392.35C947.664 1295.43 981.943 1217.48 1006.97 1160.56C1009.64 1154.5 1012.16 1148.77 1014.67 1143.13C1039.02 1086.01 1058.45 1046.45 1080.09 1025.69C1099.02 1007.1 1121.42 1001.34 1148.58 1008.1C1172.43 1013.97 1197.98 1028.83 1227.55 1046.03L1232.66 1049C1266.78 1069.15 1300.69 1088.16 1340.51 1099.5C1389.24 1113.24 1435.23 1112 1481.12 1095.69C1508.42 1086.06 1535.73 1070.92 1562.26 1050.69C1566.26 1047.65 1570.23 1044.49 1574.19 1041.22C1599 1020.7 1623.12 995.678 1646.04 966.654C1674.83 930.321 1701.82 887.653 1726.27 839.838C1752.65 788.244 1775.52 731.635 1794.25 671.58L1790.68 669.644C1745.02 816.051 1685.38 909.976 1643.38 962.98C1593.1 1026.64 1536.65 1070.82 1480.12 1090.78C1434.84 1106.87 1389.44 1108.09 1341.32 1094.52C1301.88 1083.29 1268.17 1064.38 1234.23 1044.35L1229.11 1041.37C1199.32 1024.04 1173.59 1009.07 1149.29 1003.09C1121.03 996.06 1097.64 1002.11 1077.81 1021.59C1055.53 1042.95 1036.56 1081.41 1011.34 1140.58C1008.84 1146.19 1006.32 1151.92 1003.65 1158C978.706 1214.71 944.548 1292.38 877.156 1388.89L879.99 1392.34L879.987 1392.35Z" fill="white"/>
<path d="M886.165 1295.1C937.91 1206.54 965.796 1134.25 988.205 1076.16C992.848 1064.13 997.23 1052.77 1001.51 1042.11C1026.11 977.922 1045.68 943.016 1066.93 925.379C1087.11 908.252 1110.91 905.163 1139.71 915.986C1164.09 925.063 1188.94 942.849 1217.71 963.445C1220 965.08 1222.3 966.726 1224.62 968.384C1252.66 988.661 1287.55 1013.9 1326.98 1028.91C1347.47 1036.68 1367.78 1041.12 1387.32 1042.1C1409.83 1043.22 1432.17 1039.82 1453.72 1031.99C1476.44 1023.83 1499 1010.55 1520.86 992.48C1521.86 991.651 1522.86 990.809 1523.86 989.961C1548.39 969.123 1572.02 942.176 1594.09 909.875C1617.34 876.093 1639.43 835.635 1659.75 789.62C1680.82 741.903 1699.54 689.16 1715.41 632.849L1711.8 631.075C1680.52 742.083 1638.83 837.304 1591.23 906.46C1549.26 967.905 1501.36 1009.61 1452.71 1027.08C1412.64 1041.63 1371.86 1040.64 1328.05 1024.01C1289.03 1009.16 1254.34 984.075 1226.46 963.906C1224.13 962.245 1221.83 960.595 1219.55 958.965C1190.58 938.226 1165.55 920.317 1140.76 911.082C1126.71 905.8 1113.49 903.748 1101.47 904.974C1088.16 906.337 1075.83 911.756 1064.87 921.075C1043 939.223 1023.02 974.73 998.089 1039.76C993.818 1050.41 989.423 1061.79 984.777 1073.84C962.442 1131.74 934.645 1203.8 883.12 1291.97L886.171 1295.08L886.165 1295.1Z" fill="white"/>
<path d="M1526.2 245.246C1473.82 339.402 1447.66 415.16 1428.57 470.475C1426.06 477.736 1423.69 484.59 1421.35 491.274C1403.07 545.773 1386.93 586.593 1367.53 608.692C1350.88 628.089 1330.55 635.288 1305.39 630.699C1282.13 626.522 1256.93 612.743 1227.76 596.794L1225.94 595.787C1197.76 580.138 1165.81 562.4 1129.77 552.301C1086.5 540.271 1046.13 541.572 1006.34 556.287C982.717 564.966 959.1 578.576 936.139 596.75C911.172 616.512 886.698 641.904 863.418 672.213C812.036 738.816 764.651 831.479 726.386 940.196L729.881 942.342C767.954 834.179 815.067 742.024 866.122 675.838C910.683 617.827 958.213 579.254 1007.38 561.183C1046.56 546.688 1086.34 545.409 1128.98 557.271C1164.66 567.269 1195.05 584.146 1224.45 600.467L1226.28 601.479C1255.7 617.564 1281.11 631.459 1304.86 635.724C1326.34 639.641 1344.47 635.316 1359.94 622.526C1363.45 619.625 1366.82 616.284 1370.06 612.512C1390.05 589.738 1405.85 550.021 1424.86 493.362C1427.19 486.703 1429.57 479.84 1432.07 472.571C1452.16 414.387 1477.16 341.978 1529.31 248.242L1526.2 245.232L1526.2 245.246Z" fill="white"/>
<path d="M1527.61 271.788C1478.73 363.888 1454.88 436.118 1435.72 494.152C1432.85 502.864 1430.13 511.09 1427.45 519.014C1406.42 584.25 1391.39 617.166 1373.82 636.437C1356.86 655.47 1336.11 661.908 1310.39 656.122C1286.88 650.901 1261.76 636.071 1232.66 618.894L1230.07 617.353C1200.64 599.727 1170.2 581.502 1134.66 570.347C1092.02 557.049 1052.33 557.495 1013.29 571.71C990.234 580.043 967.191 593.398 944.809 611.417C920.555 630.935 896.805 656.16 874.229 686.374C825.073 751.808 779.098 843.934 741.275 952.794L744.777 954.912C782.415 846.586 828.125 754.969 876.968 689.95C920.239 632.038 966.448 593.906 1014.32 576.614C1052.71 562.631 1091.78 562.199 1133.77 575.297C1168.95 586.334 1199.22 604.455 1228.48 621.987L1231.09 623.538C1260.43 640.856 1285.76 655.816 1309.76 661.14C1322.46 664.001 1334.27 663.929 1344.86 660.931C1352.99 658.63 1360.61 654.542 1367.62 648.744C1370.63 646.256 1373.53 643.449 1376.31 640.335C1397.15 617.475 1413.24 576.099 1430.99 521.052C1433.66 513.148 1436.38 504.91 1439.26 496.187C1458.35 438.361 1482.11 366.392 1530.77 274.71L1527.61 271.79L1527.61 271.788Z" fill="white"/>
<path d="M882.347 1228.17C921.718 1150.86 946.808 1084.09 966.97 1030.44C974.535 1010.32 981.676 991.304 988.573 974.45C1013.17 911.806 1035.09 876.191 1059.68 858.935C1081.76 843.106 1108.29 841.75 1138.56 854.912C1164.15 865.956 1190.36 886.294 1218.1 907.827C1220.48 909.673 1222.88 911.536 1225.29 913.405C1254.45 936.172 1287.5 961.982 1324.08 977.412C1343.22 985.48 1362.08 990.133 1380.14 991.238C1400.72 992.496 1420.91 989.193 1440.14 981.429C1456.18 975.049 1472.03 965.402 1487.44 952.665C1492.19 948.732 1496.91 944.504 1501.57 939.988C1522.59 919.63 1542.7 893.259 1561.35 861.614C1580.35 829.764 1598.97 790.579 1616.68 745.136C1633.94 700.831 1650.44 650.374 1665.7 595.16L1662.08 593.415C1631.37 704.519 1595.49 796.173 1558.31 858.474C1522.25 919.687 1482.11 959.419 1439.02 976.562C1403.67 990.834 1365.39 989.491 1325.25 972.566C1289.09 957.309 1256.24 931.659 1227.25 909.021C1224.83 907.15 1222.43 905.29 1220.05 903.443C1192.13 881.767 1165.75 861.292 1139.76 850.078C1124.93 843.632 1110.84 840.517 1097.88 840.829C1083.45 841.172 1069.98 845.757 1057.86 854.452C1045 863.474 1032.92 877.36 1020.93 896.907C1009.24 915.945 997.545 940.548 985.168 972.067C978.258 988.961 971.098 1008.01 963.519 1028.17C943.407 1081.69 918.378 1148.3 879.148 1225.33L882.345 1228.16L882.347 1228.17Z" fill="white"/>
<path d="M1529.81 297.599C1484.54 387.074 1461.77 458.53 1443.47 515.941C1440.13 526.414 1436.98 536.306 1433.88 545.7C1413.7 609.957 1398.03 643.96 1379.77 663.08C1362.32 681.761 1341.02 687.464 1314.66 680.527C1290.78 674.32 1265.61 658.488 1236.48 640.159L1233.17 638.06C1203.87 619.381 1173.58 600.065 1138.57 588.042C1096.56 573.685 1057.56 573.431 1019.35 587.272C996.878 595.334 974.443 608.503 952.675 626.418C929.18 645.732 906.188 670.852 884.352 701.005C837.602 765.135 793.031 856.728 755.449 965.883L758.957 967.989C796.357 859.352 840.676 768.256 887.131 704.527C929.038 646.662 973.858 608.86 1020.36 592.182C1057.91 578.583 1096.26 578.84 1137.6 592.967C1172.24 604.861 1202.36 624.069 1231.49 642.64L1234.82 644.753C1264.19 663.229 1289.55 679.181 1313.91 685.513C1326.88 688.927 1338.96 689.331 1349.83 686.714C1358.84 684.548 1367.23 680.252 1374.89 673.92C1377.4 671.846 1379.83 669.552 1382.18 667.042C1400.98 647.355 1416.99 612.766 1437.43 547.683C1440.53 538.301 1443.68 528.394 1447.03 517.904C1465.26 460.69 1487.95 389.489 1533.02 300.417L1529.81 297.591L1529.81 297.599Z" fill="white"/>
<path d="M884.414 1249.91C927.916 1168.34 953.951 1099.27 974.865 1043.78C981.254 1026.84 987.286 1010.83 993.127 996.341C1017.4 933.469 1038.6 897.704 1061.88 880.378C1083.13 864.193 1108.92 862.262 1138.52 874.651C1163.66 885.081 1188.57 903.997 1217.41 925.907C1219.78 927.713 1222.18 929.53 1224.59 931.357C1253.85 953.751 1287.02 979.131 1324.55 994.556C1344.14 1002.59 1363.49 1007.23 1382.05 1008.34C1403.27 1009.62 1424.19 1006.33 1444.2 998.59C1462.42 991.636 1480.44 980.82 1497.94 966.352C1501.5 963.407 1505.04 960.312 1508.55 957.069C1530.74 936.582 1552.02 910.046 1571.79 878.212C1612.81 812.868 1650.71 719.625 1681.39 608.55L1677.77 606.805C1647.24 717.339 1609.56 810.065 1568.81 874.973C1531.13 935.65 1487.68 976.704 1443.12 993.707C1406.36 1007.94 1366.85 1006.59 1325.7 989.7C1288.57 974.449 1255.6 949.223 1226.52 926.955C1224.1 925.127 1221.7 923.307 1219.33 921.5C1190.29 899.448 1165.22 880.4 1139.68 869.805C1125.14 863.717 1111.36 860.936 1098.74 861.536C1084.71 862.205 1071.66 867.062 1059.97 875.965C1036 893.804 1014.33 930.22 989.716 993.999C983.868 1008.51 977.824 1024.55 971.423 1041.52C950.563 1096.85 924.603 1165.73 881.268 1246.99L884.419 1249.92L884.414 1249.91Z" fill="white"/>
<path d="M882.752 1367.17C946.592 1271.64 979.311 1193.88 1003.2 1137.12C1006.22 1129.94 1009.08 1123.15 1011.91 1116.54C1035.23 1059.49 1054.16 1019.97 1076.41 999.145C1095.42 980.908 1118 975.863 1145.43 983.701C1169.26 990.443 1194.5 1006.13 1223.72 1024.29C1225.62 1025.47 1227.53 1026.66 1229.45 1027.85C1263.24 1049.15 1296.8 1069.28 1335.78 1081.5C1383.43 1096.33 1428.31 1095.88 1472.96 1080.15C1499.4 1070.9 1525.81 1056.12 1551.45 1036.2C1554.3 1033.98 1557.13 1031.71 1559.95 1029.38C1584.88 1008.77 1609.06 983.245 1631.95 953.378C1659.4 917.71 1685.16 875.654 1708.54 828.37C1733.58 777.729 1755.32 722.153 1773.16 663.165L1769.58 661.281C1725.89 805.741 1669.15 897.885 1629.24 949.755C1580.96 1012.75 1526.58 1056.14 1471.96 1075.23C1427.93 1090.74 1383.67 1091.18 1336.65 1076.55C1298.05 1064.45 1264.69 1044.44 1231.09 1023.25C1229.16 1022.06 1227.24 1020.87 1225.35 1019.69C1195.91 1001.4 1170.49 985.597 1146.23 978.729C1117.67 970.565 1094.09 975.896 1074.15 995.014C1051.31 1016.39 1032.1 1056.44 1008.53 1114.08C1005.71 1120.67 1002.85 1127.46 999.826 1134.65C976.021 1191.22 943.421 1268.69 879.855 1363.82L882.746 1367.18L882.752 1367.17Z" fill="white"/>
<path d="M884.701 1342.57C944.576 1248.9 975.929 1171.64 998.818 1115.23C1002.28 1106.7 1005.55 1098.64 1008.77 1090.87C1030.69 1035.55 1049.99 994.441 1072.99 973.62C1092.24 955.751 1115.13 951.376 1142.93 960.258C1166.85 967.825 1191.87 984.261 1220.85 1003.3C1222.91 1004.65 1225 1006.02 1227.09 1007.39C1261.91 1030.56 1293.84 1050.8 1332.02 1063.74C1353.44 1070.96 1374.7 1074.92 1395.21 1075.52C1418.97 1076.22 1442.71 1072.45 1465.75 1064.32C1491.31 1055.39 1516.81 1040.88 1541.52 1021.2C1543.12 1019.93 1544.72 1018.63 1546.32 1017.31C1571.44 996.536 1595.75 970.366 1618.66 939.427C1644.73 904.401 1669.27 862.91 1691.59 816.115C1715.3 766.436 1735.96 711.85 1753.02 653.871L1749.43 652.03C1716.2 765.007 1670.03 863.155 1615.91 935.866C1569.69 998.286 1517.42 1041 1464.76 1059.4C1422.03 1074.48 1378.92 1074.28 1332.98 1058.81C1295.18 1045.99 1263.45 1025.88 1228.82 1002.83C1226.72 1001.45 1224.64 1000.08 1222.57 998.729C1193.38 979.557 1168.18 962.996 1143.84 955.296C1114.9 946.057 1091.01 950.677 1070.79 969.424C1047.16 990.82 1027.54 1032.5 1005.37 1088.45C1002.16 1096.2 998.891 1104.27 995.421 1112.81C971.344 1172.15 941.375 1246.01 881.759 1339.27L884.701 1342.55L884.701 1342.57Z" fill="white"/>
<path d="M1526.7 161.28C1464.97 257.836 1433.65 333.053 1410.78 387.979C1408.96 392.354 1407.18 396.627 1405.42 400.819C1381.71 459.534 1365.34 495.548 1346.77 517.711C1329.87 538.284 1309.84 547.949 1285.53 547.248C1262.05 546.618 1235.86 536.558 1208.13 525.916L1206.35 525.218C1177.76 514.054 1145.36 501.399 1108.15 495.665C1062.97 488.823 1020.72 493.828 978.985 510.969C925.813 532.745 874.388 573.805 826.141 633C769.254 702.68 717.836 796.89 677.454 905.452L680.912 907.691C721.089 799.688 772.218 705.985 828.762 636.722C876.587 578.046 927.511 537.372 980.127 515.823C1021.35 498.893 1063.08 493.951 1107.7 500.715C1144.58 506.395 1176.81 518.982 1205.25 530.093L1207.05 530.795C1235.03 541.541 1261.46 551.691 1285.45 552.335C1304.62 552.882 1321.25 547.245 1335.85 535.173C1340.56 531.278 1345.06 526.71 1349.36 521.468C1368.34 498.821 1384.9 462.435 1408.81 403.244C1410.56 399.075 1412.34 394.808 1414.16 390.424C1436.95 335.691 1468.16 260.724 1529.65 164.554L1526.71 161.273L1526.7 161.28Z" fill="white"/>
<path d="M1525.58 217.974C1469.85 313.59 1442.19 389.491 1422 444.911C1419.79 450.992 1417.69 456.736 1415.61 462.387C1395.8 518.484 1379.74 557.677 1360.9 579.731C1344.38 599.505 1324.32 607.495 1299.58 604.142C1276.42 601.063 1251.23 588.518 1222.07 573.993L1220.69 573.297C1192.37 558.968 1160.28 542.723 1123.79 533.868C1079.9 523.32 1038.87 525.657 998.377 541.021C974.223 550.139 950.062 564.079 926.57 582.465C900.927 602.539 875.782 628.14 851.845 658.576C798.424 726.258 749.642 819.461 710.776 928.118L714.262 930.292C752.929 822.195 801.428 729.501 854.516 662.243C900.275 604.074 949.034 564.936 999.437 545.915C1039.35 530.77 1079.81 528.473 1123.1 538.878C1159.24 547.647 1191.15 563.802 1219.31 578.054L1220.69 578.757C1250.11 593.414 1275.53 606.073 1299.19 609.212C1319.7 611.989 1337.16 607.281 1352.16 594.875C1356.1 591.622 1359.86 587.839 1363.47 583.523C1382.79 560.906 1399.07 521.227 1419.08 464.581C1421.15 458.953 1423.25 453.21 1425.47 447.122C1445.59 391.902 1473.14 316.278 1528.63 221.083L1525.58 217.981L1525.58 217.974Z" fill="white"/>
<path d="M1532.82 322.672C1491.23 408.973 1469.39 479.292 1451.84 535.796C1447.93 548.388 1444.24 560.283 1440.61 571.405C1420.99 634.69 1404.47 669.764 1385.35 688.71C1367.51 706.79 1344.92 711.934 1318.2 703.995C1293.84 696.841 1268.57 680.082 1239.31 660.67L1235.32 658.011C1206.17 638.429 1176.03 618.177 1141.58 605.457C1100.21 590.224 1061.94 589.427 1024.58 603.007C1002.72 610.868 980.932 623.907 959.815 641.771C937.11 660.969 914.912 685.983 893.846 716.1C871.896 747.23 850.192 785.247 829.337 829.102C808.185 873.584 787.85 924.184 768.905 979.496L772.414 981.594C809.813 872.414 852.777 781.81 896.671 719.562C937.151 661.698 980.527 624.136 1025.6 607.92C1062.27 594.587 1099.87 595.384 1140.55 610.364C1174.62 622.953 1204.6 643.084 1233.58 662.554L1237.58 665.227C1267.07 684.79 1292.54 701.682 1317.36 708.969C1330.63 712.912 1343.04 713.775 1354.24 711.527C1364.24 709.523 1373.53 705.001 1381.92 698.06C1383.89 696.43 1385.81 694.664 1387.69 692.77C1407.38 673.253 1424.27 637.535 1444.16 573.382C1447.79 562.263 1451.48 550.348 1455.4 537.737C1472.89 481.423 1494.66 411.334 1536.06 325.411L1532.81 322.683L1532.82 322.672Z" fill="white"/>
<path d="M885.836 1318.55C941.671 1227.21 970.589 1153.85 993.824 1094.9C997.817 1084.77 1001.59 1075.2 1005.29 1066.1C1030.6 1000.82 1049.29 966.927 1069.82 949.068C1089.47 931.557 1112.77 927.851 1141.03 937.723C1165.14 946.068 1190.04 963.205 1218.87 983.051C1221.07 984.563 1223.28 986.086 1225.5 987.616C1260.11 1011.71 1291.79 1032.76 1329.12 1046.25C1350.07 1053.78 1370.85 1058.02 1390.88 1058.84C1414.02 1059.79 1437.07 1056.24 1459.37 1048.29C1484.04 1039.59 1508.59 1025.3 1532.35 1005.81C1532.66 1005.55 1532.97 1005.3 1533.28 1005.04C1558.63 984.08 1583.12 957.132 1606.05 924.939C1630.72 890.535 1654.03 849.582 1675.33 803.21C1697.71 754.501 1717.37 700.863 1733.76 643.786L1730.15 641.985C1698.04 753.831 1654.15 850.462 1603.25 921.447C1559.13 983.347 1509.04 1025.51 1458.37 1043.37C1416.95 1058.14 1375 1057.47 1330.13 1041.33C1293.18 1027.98 1261.7 1007.06 1227.29 983.095C1225.05 981.561 1222.84 980.035 1220.65 978.528C1191.61 958.541 1166.54 941.281 1142.02 932.792C1128.18 927.956 1115.19 926.301 1103.42 927.855C1090.41 929.58 1078.38 935.294 1067.68 944.819C1046.57 963.186 1027.49 997.642 1001.87 1063.72C998.179 1072.81 994.403 1082.39 990.4 1092.54C967.243 1151.28 938.425 1224.39 882.833 1315.34L885.829 1318.53L885.836 1318.55Z" fill="white"/>
<path d="M1525.75 189.987C1466.89 286.423 1437.51 362.15 1416.05 417.439C1414.09 422.514 1412.17 427.444 1410.28 432.273C1388.67 489.777 1372.53 527.384 1353.97 549.451C1337.37 569.619 1317.42 578.426 1292.97 576.373C1269.74 574.473 1243.48 562.814 1215.68 550.474L1214.19 549.8C1185.74 536.964 1153.5 522.407 1116.62 515.006C1072.09 506.176 1030.45 509.744 989.294 525.912C937.157 546.317 886.738 586.545 839.446 645.487C784.183 714.191 734.048 807.914 694.467 916.54L697.941 918.745C737.323 810.679 787.168 717.472 842.091 649.19C888.945 590.801 938.838 550.965 990.395 530.792C1030.99 514.843 1072.1 511.322 1116.05 520.038C1152.58 527.37 1184.65 541.843 1212.94 554.616L1214.44 555.291C1242.49 567.744 1268.99 579.513 1292.73 581.454C1312.46 583.111 1329.41 577.973 1344.13 565.806C1348.46 562.222 1352.6 558.028 1356.56 553.215C1375.56 530.622 1391.91 492.591 1413.71 434.573C1415.59 429.779 1417.51 424.841 1419.48 419.758C1440.85 364.662 1470.13 289.209 1528.74 193.178L1525.74 189.988L1525.75 189.987Z" fill="white"/>
<path d="M885.689 1272.22C933.314 1186.91 960.261 1116.03 981.911 1059.08C987.34 1044.81 992.464 1031.32 997.444 1018.88C1021.37 956.382 1041 921.729 1062.75 903.742C1063.26 903.322 1063.77 902.908 1064.28 902.504C1085.1 885.724 1109.5 883.265 1138.89 894.984C1163.62 904.762 1188.47 923.139 1217.24 944.417C1219.59 946.15 1221.96 947.901 1224.34 949.658C1252.26 970.485 1287 996.41 1325.49 1011.7C1345.53 1019.64 1365.36 1024.21 1384.42 1025.28C1406.29 1026.51 1427.91 1023.2 1448.7 1015.43C1469.15 1007.89 1489.43 995.851 1509.08 979.601C1511.38 977.698 1513.68 975.736 1515.96 973.715C1539.32 953.07 1561.77 926.341 1582.69 894.288C1627.2 826.68 1667.06 732.211 1697.95 621.101L1694.33 619.347C1663.6 729.886 1623.99 823.807 1579.77 890.961C1539.95 951.998 1494.27 993.343 1447.66 1010.53C1408.98 1024.98 1369.38 1023.77 1326.6 1006.82C1288.53 991.696 1253.99 965.93 1226.23 945.215C1223.84 943.453 1221.48 941.702 1219.13 939.97C1190.16 918.544 1165.13 900.041 1140 890.102C1125.71 884.401 1112.23 881.978 1099.92 882.882C1086.27 883.89 1073.6 889.024 1062.3 898.136C1039.28 916.253 1018.85 951.688 994.028 1016.53C989.046 1028.97 983.91 1042.48 978.473 1056.79C956.891 1113.56 930.025 1184.23 882.592 1269.19L885.695 1272.21L885.689 1272.22Z" fill="white"/>
<path d="M1552.95 415.513C1526.36 483.112 1508.69 541.295 1493.11 592.629C1484.68 620.363 1477.41 644.315 1469.9 665.846C1449.38 727.174 1428.52 764.314 1404.25 782.738C1382.6 799.502 1356.34 801.991 1326.18 790.133C1299.12 779.589 1271.6 758.636 1242.47 736.454L1236.58 731.945C1208.09 710.079 1178.63 687.46 1146.66 673.332C1128.74 665.405 1111.2 660.735 1094.52 659.444C1075.5 657.974 1056.9 660.834 1039.25 667.939C999.536 683.688 961.647 721.62 926.651 780.67C893.188 836.299 858.889 915.988 815.439 1039.08L818.929 1041.23C862.245 918.517 896.397 839.14 929.675 783.82C964.177 725.601 1001.42 688.249 1040.36 672.81C1073.11 659.621 1107.48 661.371 1145.43 678.158C1177.03 692.121 1206.32 714.606 1234.64 736.346L1240.54 740.863C1269.88 763.202 1297.59 784.301 1325.09 795.013C1356.3 807.287 1383.6 804.633 1406.19 787.138C1407.15 786.405 1408.11 785.649 1409.06 784.861C1432.84 765.202 1453.36 727.865 1473.41 667.937C1480.96 646.325 1488.25 622.317 1496.69 594.519C1512.24 543.294 1529.87 485.234 1556.38 417.855L1552.97 415.511L1552.95 415.513Z" fill="white"/>
<path d="M860.241 1127.83C877.902 1084.7 893.426 1044.13 907.118 1008.33C927.361 955.431 944.846 909.737 962.377 873.341C990.453 813.438 1019.33 776.499 1050.69 760.395C1077.68 746.271 1108.52 747.215 1142.36 763.202C1170.77 776.563 1197.8 798.475 1226.41 821.675C1228.48 823.354 1230.55 825.034 1232.63 826.72L1232.89 826.927C1264.09 852.196 1293.57 876.063 1325.41 890.02C1361.37 905.862 1394.35 905.931 1423.42 890.225C1430.2 886.621 1436.86 882.118 1443.4 876.714C1469.2 855.378 1493 820.06 1514.36 771.355C1538.15 718.446 1560.16 646.893 1585.64 564.038C1590.39 548.592 1595.31 532.622 1600.37 516.29L1596.81 514.358C1591.74 530.697 1586.82 546.671 1582.07 562.126C1556.64 644.788 1534.69 716.179 1511.03 768.782C1484.7 828.84 1454.73 868.116 1421.96 885.516C1393.76 900.754 1361.69 900.643 1326.63 885.195C1295.21 871.421 1265.91 847.706 1234.89 822.59L1234.64 822.383C1232.56 820.701 1230.49 819.017 1228.42 817.343C1199.63 794.002 1172.44 771.958 1143.64 758.416C1127.29 750.689 1111.48 746.335 1096.64 745.478C1079.96 744.518 1064.02 747.946 1049.27 755.662C1017.12 772.171 987.618 809.786 959.101 870.641C941.481 907.223 923.959 953.018 903.668 1006.05C889.984 1041.81 874.476 1082.35 856.838 1125.42L860.227 1127.84L860.241 1127.83Z" fill="white"/>
<path d="M853.495 1109.42C865.942 1077.86 877.183 1048.42 888.051 1019.95C913.108 954.342 934.746 897.671 956.422 854.586C985.727 794.874 1015.99 758.095 1048.96 742.141C1077.02 728.31 1108.77 729.565 1143.34 745.878C1172.38 759.52 1199.6 781.521 1228.41 804.813C1230.37 806.391 1232.32 807.974 1234.28 809.556L1234.94 810.085C1265.77 834.935 1294.88 858.404 1325.8 871.827C1360.79 887.105 1392.58 886.72 1420.26 870.687C1425.6 867.651 1430.86 863.984 1436.05 859.698C1446.01 851.46 1455.65 840.945 1464.86 828.262C1479.25 808.436 1493.02 782.697 1505.77 751.783C1524.18 708.419 1541.45 652.811 1561.44 588.419C1570.38 559.636 1579.62 529.87 1589.89 498.134L1586.35 496.134C1576.07 527.901 1566.82 557.687 1557.88 586.487C1537.93 650.722 1520.7 706.201 1502.4 749.318C1477.68 809.231 1449.53 848.494 1418.72 866.012C1391.93 881.532 1361.07 881.856 1327.01 866.985C1296.51 853.748 1267.58 830.424 1236.95 805.73L1236.29 805.2C1234.33 803.616 1232.37 802.036 1230.42 800.463C1201.43 777.026 1174.04 754.888 1144.63 741.067C1127.96 733.2 1111.79 728.695 1096.57 727.688C1079.42 726.549 1062.95 729.802 1047.62 737.352C1031.16 745.316 1015.02 758.714 999.636 777.172C983.775 796.205 968.149 821.315 953.196 851.779C931.408 895.1 909.719 951.89 884.604 1017.65C873.741 1046.1 862.503 1075.52 850.068 1107.05L853.488 1109.4L853.495 1109.42Z" fill="white"/>
<path d="M1560.05 436.828C1537.27 497.78 1520.76 551.764 1506.19 599.398C1495.88 633.107 1486.97 662.214 1477.73 687.637C1456.57 748.141 1433.83 786.352 1408.2 804.448C1385.35 820.889 1358 822.787 1326.89 810.076C1299.02 798.788 1271.17 777.137 1241.68 754.218L1235.5 749.396C1207.2 727.244 1177.93 704.339 1146.6 690.146C1128.99 682.156 1111.78 677.452 1095.45 676.172C1076.89 674.719 1058.82 677.622 1041.74 684.801C1003.61 700.571 967.286 738.603 933.775 797.831C898.748 858.686 865.045 944.761 825.218 1055.27L828.699 1057.46C868.425 947.228 902.016 861.415 936.852 800.887C969.877 742.52 1005.55 705.089 1042.9 689.647C1074.6 676.317 1108.11 678.053 1145.35 694.946C1176.3 708.966 1205.4 731.736 1233.54 753.76L1239.72 758.589C1269.42 781.665 1297.46 803.464 1325.75 814.926C1357.89 828.052 1386.25 826.024 1410.03 808.911C1411.92 807.567 1413.8 806.138 1415.65 804.604C1426.86 795.336 1437.31 782.498 1447.42 765.574C1459.24 745.807 1470.3 721.008 1481.21 689.793C1490.5 664.257 1499.42 635.077 1509.76 601.289C1524.3 553.743 1540.78 499.851 1563.51 439.071L1560.05 436.82L1560.05 436.828Z" fill="white"/>
<path d="M947.123 25.7841C1144.39 -137.334 1369.2 -249.082 1620.24 -308.359L1619.56 -313.368C1549.72 -296.878 1481.08 -276.16 1415.54 -251.783C1350.43 -227.571 1286.55 -199.07 1225.67 -167.07C1165.19 -135.285 1105.97 -99.1505 1049.66 -59.682C993.725 -20.4829 939.08 23.127 887.232 69.9177C835.75 116.385 785.585 167.307 738.119 221.272C690.999 274.847 645.215 332.93 602.041 393.912C559.187 454.438 517.694 519.525 478.717 587.368C440.035 654.693 402.737 726.628 367.86 801.173L371.139 803.844C524.644 475.734 717.209 215.893 947.123 25.7841Z" fill="white"/>
<path d="M1567.97 457.375C1549.09 510.479 1534.14 558.973 1520.95 601.761C1508.22 643.032 1497.23 678.675 1485.75 708.787C1463.47 769.341 1439.32 807.527 1411.89 825.531C1387.78 841.654 1359.3 842.991 1327.22 829.495C1298.5 817.5 1270.29 795.217 1240.42 771.623L1239.08 770.566C1237.4 769.236 1235.73 767.903 1234.05 766.569C1204.65 743.211 1176.87 721.15 1146.19 707.001C1128.89 698.999 1112.02 694.322 1096.06 693.096C1077.96 691.705 1060.42 694.691 1043.92 701.973C1007.4 717.821 972.62 755.993 940.555 815.403C905.73 878.691 871.01 972.59 834.255 1072.01L837.715 1074.24C874.398 975.029 909.044 881.324 943.682 818.375C975.266 759.844 1009.4 722.305 1045.13 706.799C1075.33 693.466 1108.9 695.151 1144.91 711.802C1175.23 725.783 1202.83 747.71 1232.06 770.928C1233.74 772.262 1235.42 773.592 1237.1 774.927L1238.43 775.984C1268.5 799.733 1296.9 822.17 1326.04 834.337C1359.11 848.25 1388.58 846.812 1413.61 830.07C1416.52 828.163 1419.38 826.043 1422.21 823.702C1446.88 803.303 1468.88 766.273 1489.2 711.035C1500.74 680.776 1511.75 645.044 1524.51 603.675C1537.69 560.943 1552.62 512.513 1571.45 459.533L1567.97 457.368L1567.97 457.375Z" fill="white"/>
<path d="M1493.97 729.341C1470.38 789.984 1444.68 828.151 1415.39 846.045C1389.96 861.862 1360.3 862.671 1327.23 848.45C1297.64 835.808 1269.07 812.968 1238.83 788.787L1237.8 787.968C1235.98 786.508 1234.16 785.048 1232.34 783.59C1203.14 760.145 1175.56 737.995 1145.51 723.969C1128.52 716.01 1112 711.399 1096.41 710.26C1078.78 708.973 1061.78 712.082 1045.87 719.489C1028.72 727.335 1011.86 740.6 995.766 758.924C979.062 777.948 962.658 803.009 947.025 833.393C919.718 885.309 892.524 957.23 861.039 1040.5C855.084 1056.25 848.924 1072.54 842.548 1089.27L845.992 1091.56C852.373 1074.82 858.533 1058.53 864.49 1042.77C895.908 959.672 923.046 887.903 950.209 836.269C980.411 777.567 1013.02 739.896 1047.14 724.288C1076.28 710.722 1108.94 712.227 1144.23 728.757C1173.91 742.609 1201.32 764.622 1230.35 787.93C1232.16 789.389 1233.98 790.849 1235.81 792.314L1236.84 793.138C1267.28 817.474 1296.03 840.466 1326.04 853.288C1360.07 867.922 1390.68 867.033 1417.02 850.652C1421.04 848.191 1425.02 845.338 1428.95 842.091C1439.42 833.434 1449.51 821.996 1459.07 807.939C1472.49 788.208 1485.39 762.543 1497.39 731.696C1511.87 695.639 1525.59 651.41 1541.48 600.199C1552.74 563.903 1565.51 522.762 1580.25 479.225L1576.74 477.147C1561.96 520.757 1549.19 561.934 1537.92 598.267C1522.07 649.354 1508.37 693.472 1493.97 729.341Z" fill="white"/>
<path d="M875.845 1186.36C906.901 1119.57 928.724 1061.79 947.978 1010.81C959.245 980.974 968.976 955.209 978.775 932.431C1004.24 871.076 1028.71 834.689 1055.81 817.91C1079.73 802.792 1107.9 802.484 1139.56 817.002C1166.2 829.136 1192.68 850.305 1220.72 872.723C1223.04 874.577 1225.36 876.438 1227.71 878.308C1258.07 902.656 1289.47 927.839 1324.14 942.956C1363.06 959.953 1399.67 961.017 1432.97 946.122C1444.95 940.849 1456.75 933.408 1468.25 923.893C1475.15 918.19 1481.94 911.743 1488.6 904.573C1507.3 884.418 1525.15 858.305 1541.62 826.978C1572.63 769.029 1602.92 686.097 1636.97 565.995L1633.36 564.211C1599.44 683.894 1569.29 766.452 1538.47 824.055C1506.56 884.722 1470.65 924.167 1431.74 941.295C1399.25 955.833 1363.46 954.764 1325.35 938.121C1291.09 923.186 1259.89 898.161 1229.71 873.95C1227.36 872.084 1225.03 870.218 1222.71 868.369C1194.5 845.809 1167.84 824.496 1140.81 812.19C1108.16 797.223 1079.01 797.602 1054.16 813.31C1026.3 830.56 1001.27 867.635 975.409 929.946C965.568 952.808 955.818 978.632 944.523 1008.53C925.304 1059.42 903.521 1117.09 872.556 1183.69L875.84 1186.35L875.845 1186.36Z" fill="white"/>
<path d="M1541.25 370.595C1507.13 448.862 1486.91 515.608 1470.67 569.23C1465.15 587.461 1459.93 604.677 1454.81 620.187C1435.23 682.426 1416.93 718.538 1395.47 737.287C1375.93 754.692 1351.68 758.464 1323.33 748.471C1297.75 739.544 1272.07 721.062 1242.32 699.659L1237.25 695.983C1208.4 675.009 1178.58 653.318 1145.34 639.636C1126.83 632.023 1108.65 627.572 1091.29 626.397C1071.38 625.051 1051.77 627.956 1033 635.026C990.184 650.94 949.192 688.804 911.184 747.562C872.201 807.148 832.655 894.855 793.635 1008.25L797.143 1010.36C836.006 897.408 875.356 810.111 914.107 750.88C951.624 692.894 991.977 655.566 1034.05 639.926C1068.84 626.823 1104.86 628.32 1144.19 644.498C1177.06 658.029 1206.71 679.594 1235.39 700.443L1240.48 704.129C1270.44 725.692 1296.31 744.311 1322.34 753.391C1350.73 763.402 1375.28 760.059 1395.36 743.462C1396.12 742.833 1396.87 742.186 1397.62 741.521C1419.74 722.195 1438.48 685.375 1458.36 622.183C1463.49 606.651 1468.72 589.391 1474.25 571.129C1490.45 517.649 1510.61 451.095 1544.59 373.142L1541.25 370.605L1541.25 370.595Z" fill="white"/>
<path d="M879.488 1206.99C914.719 1134.56 938.758 1070.66 958.075 1019.31C967.473 994.326 975.59 972.748 983.785 953.162C1008.56 891.588 1032.03 855.037 1057.67 838.132C1080.64 822.661 1107.97 821.846 1138.92 835.72C1165.02 847.334 1191.35 868.118 1219.24 890.129C1221.6 891.991 1223.97 893.867 1226.36 895.747C1255.42 918.791 1288.35 944.909 1323.98 960.237C1342.66 968.284 1361.04 972.894 1378.59 973.94C1398.52 975.133 1417.98 971.774 1436.43 963.954C1450.39 958.132 1464.16 949.612 1477.56 938.531C1483.43 933.676 1489.24 928.324 1494.95 922.498C1514.8 902.248 1533.77 876.015 1551.31 844.543C1585.47 784.15 1618.98 695.476 1650.91 580.983L1647.29 579.227C1615.5 693.259 1582.16 781.5 1548.22 841.516C1514.26 902.443 1476.26 942.006 1435.26 959.114C1401.33 973.496 1364.29 972.249 1325.18 955.406C1289.96 940.26 1257.23 914.299 1228.34 891.389C1225.95 889.504 1223.58 887.633 1221.22 885.771C1193.16 863.619 1166.65 842.695 1140.16 830.907C1108.19 816.577 1079.85 817.485 1055.94 833.595C1029.56 850.987 1005.55 888.227 980.403 950.746C972.184 970.395 963.658 993.06 954.629 1017.06C935.355 1068.29 911.366 1132.06 876.251 1204.25L879.493 1207L879.488 1206.99Z" fill="white"/>
<path d="M866.217 1146.79C888.59 1094.3 906.853 1046.45 922.965 1004.22C939.486 960.928 953.753 923.538 968.08 892.545C995.035 832.445 1022.6 795.334 1052.38 779.079C1078.31 764.639 1108.25 765.213 1141.35 780.792C1169.16 793.803 1195.99 815.54 1224.41 838.558C1226.58 840.316 1228.75 842.083 1230.94 843.849C1262.43 869.366 1292.19 893.468 1324.96 907.89C1361.9 924.216 1396.08 924.68 1426.55 909.277C1434.97 905.094 1443.21 899.661 1451.28 892.992C1477.3 871.475 1501.41 837.1 1523.19 790.387C1552.33 729.26 1578.27 645.419 1611.72 533.637L1608.14 531.768C1574.76 643.292 1548.89 726.924 1519.92 787.697C1491.84 847.931 1459.97 887.234 1425.18 904.525C1395.56 919.497 1362.25 919.008 1326.18 903.067C1293.82 888.826 1264.26 864.873 1232.95 839.514C1230.77 837.748 1228.59 835.984 1226.42 834.223C1197.83 811.061 1170.83 789.186 1142.65 775.999C1108.61 759.977 1077.73 759.44 1050.89 774.387C1020.33 791.067 992.16 828.877 964.779 889.928C950.383 921.07 936.086 958.542 919.527 1001.94C903.434 1044.11 885.194 1091.92 862.862 1144.29L866.219 1146.79L866.217 1146.79Z" fill="white"/>
<path d="M1536.63 347.008C1498.77 429.585 1477.75 498.357 1460.88 553.619C1456.25 568.765 1451.88 583.072 1447.59 596.215C1428.25 658.542 1410.68 694.685 1390.59 713.421C1371.97 731.162 1348.58 735.605 1321.08 726.619C1296.14 718.561 1270.69 700.913 1241.22 680.476L1236.66 677.288C1207.66 656.945 1177.67 635.91 1143.82 622.633C1103.09 606.697 1065.57 605.479 1029.11 618.916C984.789 635.048 942.284 672.969 902.776 731.619C860.781 793.371 820.024 881.513 781.634 993.61L785.148 995.705C823.373 884.084 863.915 796.379 905.65 735.005C944.66 677.099 986.544 639.684 1030.14 623.819C1065.89 610.647 1102.71 611.857 1142.72 627.511C1176.2 640.641 1206.01 661.553 1234.85 681.781L1239.43 684.982C1269.13 705.576 1294.77 723.355 1320.15 731.563C1346.84 740.282 1369.88 736.794 1388.73 721.211C1390.12 720.061 1391.48 718.847 1392.83 717.566C1403.57 707.545 1413.47 692.961 1423.09 672.991C1432.24 654.01 1441.42 629.528 1451.14 598.186C1455.43 585.027 1459.81 570.701 1464.45 555.524C1481.28 500.434 1502.23 431.872 1539.92 349.641L1536.63 347.008Z" fill="white"/>
<path d="M871.419 1166.3C898.216 1106.07 918.502 1052.64 936.4 1005.49C949.997 969.688 961.736 938.765 973.54 912.24C999.505 851.935 1025.84 814.65 1054.06 798.242C1078.97 783.468 1108.01 783.622 1140.39 798.712C1167.61 811.315 1194.25 832.804 1222.47 855.559C1224.73 857.376 1226.99 859.201 1229.26 861.032C1259.51 885.461 1290.78 910.714 1324.5 925.525C1362.43 942.237 1397.82 943.034 1429.7 927.901C1439.9 923.139 1449.87 916.732 1459.59 908.694C1485.74 887.072 1510.1 853.666 1532.27 808.926C1566.45 741.286 1596.52 644.607 1623.92 550.212L1620.32 548.391C1593 642.511 1563.03 738.877 1529.06 806.123C1499.11 866.557 1465.25 905.921 1428.42 923.111C1397.36 937.849 1362.81 937.039 1325.73 920.699C1292.42 906.071 1261.34 880.963 1231.28 856.689C1229 854.856 1226.74 853.032 1224.49 851.216C1196.09 828.319 1169.27 806.691 1141.68 793.913C1108.34 778.38 1078.33 778.276 1052.51 793.596C1037.84 802.126 1024.1 815.576 1010.51 834.711C996.82 853.978 983.636 878.517 970.214 909.693C958.357 936.333 946.592 967.326 932.965 1003.21C915.092 1050.29 894.837 1103.64 868.105 1163.72L871.429 1166.3L871.419 1166.3Z" fill="white"/>
<path d="M1546.69 393.433C1516.33 466.743 1496.94 530.852 1481.35 582.363C1474.7 604.342 1468.42 625.104 1462.25 643.377C1442.57 704.346 1422.92 741.432 1400.44 760.024C1400.3 760.138 1400.16 760.256 1400.02 760.37C1399.96 760.421 1399.89 760.472 1399.83 760.523C1379.33 777.478 1354.16 780.538 1325.01 769.62C1298.71 759.863 1271.51 739.674 1242.71 718.291L1237.19 714.173C1208.52 692.691 1178.87 670.48 1146.26 656.514C1128.04 648.714 1110.18 644.123 1093.15 642.866C1073.67 641.431 1054.56 644.289 1036.35 651.353C995.067 667.142 955.626 705.017 919.122 763.909C882.908 821.586 845.545 906.464 804.9 1023.39L808.401 1025.52C848.903 908.998 886.093 824.489 922.097 767.148C958.104 709.055 996.908 671.744 1037.43 656.244C1071.21 643.134 1106.42 644.808 1145.07 661.36C1177.31 675.169 1206.78 697.251 1235.29 718.607L1240.82 722.734C1269.83 744.27 1297.23 764.607 1323.96 774.523C1354.2 785.849 1380.41 782.592 1401.86 764.855C1401.93 764.801 1401.99 764.747 1402.05 764.696C1402.2 764.576 1402.35 764.455 1402.5 764.331C1425.67 745.171 1445.8 707.34 1465.78 645.412C1471.97 627.089 1478.27 606.283 1484.93 584.252C1500.48 532.868 1519.82 468.918 1550.07 395.878L1546.69 393.441L1546.69 393.433Z" fill="white"/>
<path d="M1528.4 131.905C1465.42 230.465 1430.63 305.057 1405.22 359.52C1403.89 362.37 1402.58 365.174 1401.28 367.95C1376.11 422.928 1358.17 460.724 1338.9 484.275C1302.73 529.964 1262.06 520.784 1199.36 500.223C1196.98 499.472 1194.58 498.707 1192.15 497.932C1133.37 479.229 1060.23 455.955 967.695 496.349C914.069 519.998 861.577 561.969 811.667 621.098C782.64 655.643 755.581 694.833 731.231 737.58C703.72 785.886 679.655 838.829 659.714 894.929L663.204 897.086C700.468 792.247 752.696 698.122 814.246 624.876C863.755 566.22 915.791 524.598 968.908 501.173C1060.39 461.234 1132.95 484.32 1191.25 502.873C1193.68 503.645 1196.08 504.41 1198.45 505.158C1228.02 514.858 1254.44 522.821 1278.27 522.075C1296.44 521.508 1311.91 515.787 1325.76 504.334C1331.25 499.794 1336.49 494.353 1341.54 487.973C1361.16 463.998 1379.24 425.927 1404.57 370.598C1405.86 367.836 1407.17 365.037 1408.5 362.188C1433.85 307.862 1468.56 233.458 1531.34 135.187L1528.4 131.91L1528.4 131.905Z" fill="white"/>
<path d="M1597.32 -237.494C1461.52 -162.568 1359.73 -101.582 1269.91 -47.7788C1262.3 -43.2172 1254.76 -38.7046 1247.27 -34.22L1231.02 -24.3684C1142.68 29.1814 1059.23 79.7585 974.08 139.795C923.117 176.002 878.349 210.88 837.207 246.431C786.944 289.864 740.94 335.127 696.572 384.794C646.152 441.393 598.626 503.248 555.31 568.641C506.306 642.614 460.793 723.955 420.027 810.397L423.299 813.088C500.731 648.891 590.937 510.065 699.067 388.678C802.452 272.93 901.322 197.265 975.904 144.283C1060.95 84.3217 1144.34 33.7726 1232.63 -19.741L1248.87 -29.5913C1256.36 -34.0728 1263.9 -38.5904 1271.51 -43.1469C1361.3 -96.9365 1463.06 -157.905 1598.82 -232.798L1597.33 -237.495L1597.32 -237.494Z" fill="white"/>
<path d="M806.438 1676.81C889.925 1603.49 946.668 1546.09 992.258 1499.97C998.294 1493.86 1004.12 1487.97 1009.79 1482.26C1058.59 1432.7 1093.33 1399.42 1126.49 1375.91C1190.33 1329.19 1247.93 1322.89 1335.25 1318.05L1339.24 1317.78C1419.95 1312.27 1520.39 1305.42 1646.64 1229.05C1675.83 1211.23 1704.57 1190.62 1732.73 1167.33C1773.98 1133.23 1813.99 1093.38 1852.34 1048.15C1934.06 951.419 2002.71 837.149 2056.37 708.52L2052.99 706.063C1999.54 834.195 1931.16 948.017 1849.77 1044.36C1785.52 1120.13 1716.63 1180.71 1645.03 1224.43C1519.46 1300.39 1419.43 1307.21 1339.04 1312.7L1335.07 1312.97C1292.73 1315.31 1257.67 1317.73 1224.05 1325.59C1187.22 1334.2 1155.62 1348.77 1124.65 1371.44C1091.28 1395.1 1056.41 1428.51 1007.45 1478.22C1001.79 1483.92 995.957 1489.82 989.921 1495.93C944.372 1542 887.688 1599.35 804.313 1672.58L806.447 1676.82L806.438 1676.81Z" fill="white"/>
<path d="M979.561 1548.9C988.329 1540.97 996.611 1533.49 1004.66 1526.26C1055.27 1480.51 1094.12 1447.26 1131.41 1422.88C1205.4 1373.08 1275.14 1363.24 1355.92 1351.83L1356.82 1351.7C1441.45 1338.69 1546.77 1322.5 1675.95 1237.64C1699.7 1221.9 1723.11 1204.49 1746.15 1185.44C1793.4 1146.37 1839.02 1100.44 1882.42 1048.21C1963.6 950.179 2032.71 835.495 2087.84 707.357L2084.49 704.847C2029.56 832.524 1960.7 946.786 1879.82 1044.46C1815.53 1121.84 1746.36 1185.31 1674.22 1233.09C1545.66 1317.56 1440.71 1333.69 1356.37 1346.65L1355.48 1346.78C1308.7 1353.39 1272.86 1358.82 1237.59 1368.69C1197.72 1379.84 1163.43 1395.62 1129.67 1418.33C1092.21 1442.84 1053.23 1476.19 1002.49 1522.05C994.435 1529.28 986.153 1536.77 977.382 1544.7C930.729 1586.87 872.668 1639.35 792.358 1704.27L794.369 1708.61C874.762 1643.62 932.867 1591.1 979.558 1548.9L979.561 1548.9Z" fill="white"/>
<path d="M1608.07 -275.115C1469.41 -218.937 1351.53 -163.005 1237.08 -99.0834C1121.28 -33.9722 1024.84 30.5692 933.563 104.038C828.05 189.278 735.936 281.843 651.943 387.028C604.713 446.258 559.84 509.937 518.569 576.294C473.964 648.015 432.141 725.147 394.267 805.553L397.539 808.243C470.212 653.963 556.699 513.488 654.597 390.717C733.829 291.487 820.307 203.526 918.498 122.336C924.146 117.665 929.847 113.007 935.57 108.381C1026.68 35.0441 1122.97 -29.3918 1238.59 -94.3967C1352.9 -158.245 1470.67 -214.125 1609.2 -270.251L1608.07 -275.115Z" fill="white"/>
<path d="M817.63 1645.64C902.975 1565 957.754 1503.5 1001.77 1454.09C1005.9 1449.46 1009.93 1444.94 1013.86 1440.53C1060.82 1387.44 1091.89 1354.37 1121.58 1331.67C1180.36 1285.16 1234.66 1283.21 1317.12 1285.53L1322.3 1285.6C1360.71 1286.18 1404.25 1286.84 1453.67 1278.7C1510.78 1269.29 1565.31 1249.76 1620.38 1218.97C1653.5 1200.27 1686.07 1177.68 1717.91 1151.35C1754.5 1121.1 1790.12 1085.92 1824.47 1046.06C1906.22 950.798 1973.98 837.316 2025.87 708.765L2022.47 706.371C1970.8 834.383 1903.32 947.385 1821.92 1042.24C1757.99 1116.42 1689.66 1174.32 1618.87 1214.29C1495.7 1283.14 1399.58 1281.69 1322.34 1280.52L1317.19 1280.44C1276.99 1279.31 1243.72 1278.92 1211.9 1284.82C1177.48 1291.21 1148.16 1304.71 1119.63 1327.29C1089.7 1350.17 1058.49 1383.38 1011.36 1436.66C1007.43 1441.06 1003.41 1445.57 999.273 1450.21C955.311 1499.56 900.595 1560.99 815.383 1641.5L817.623 1645.64L817.63 1645.64Z" fill="white"/>
<path d="M827.956 1615.07C913.98 1528.27 966.421 1463.4 1008.56 1411.28C1011.41 1407.76 1014.19 1404.3 1016.95 1400.91C1056.37 1351.66 1086.62 1314.84 1115.83 1290.69C1116.11 1290.45 1116.4 1290.21 1116.68 1289.98C1117.42 1289.36 1118.15 1288.74 1118.88 1288.13C1172.27 1243.99 1223.63 1245.91 1301.26 1254.33L1306.54 1254.84C1343.6 1258.38 1385.61 1262.39 1433.71 1257.64C1489.35 1252.14 1542.72 1235.81 1596.87 1207.72C1632.68 1188.94 1667.89 1165.25 1702.25 1136.83C1736.61 1108.42 1767.42 1077.96 1798.62 1042.18C1836.3 998.77 1871.35 950.505 1902.79 898.713C1938.52 839.843 1970 775.722 1996.34 708.136L1992.91 705.807C1943.26 833.209 1877.04 945.092 1796.09 1038.35C1732.72 1111.02 1665.21 1166.42 1595.46 1202.99C1474.4 1265.79 1381.48 1256.9 1306.82 1249.77L1301.55 1249.26C1262.99 1245.08 1231.11 1242.2 1200.98 1246.3C1168.49 1250.72 1141.05 1263.23 1114.62 1285.68C1114.33 1285.92 1114.04 1286.16 1113.75 1286.4C1084.27 1310.78 1053.88 1347.77 1014.3 1397.21C1011.56 1400.59 1008.77 1404.04 1005.92 1407.57C963.843 1459.61 911.481 1524.39 825.613 1611.04L827.952 1615.08L827.956 1615.07Z" fill="white"/>
<path d="M1587.33 -200.528C1521.29 -155.528 1466.25 -116.907 1417.68 -82.8245C1354.98 -38.8232 1305.45 -4.07306 1256.93 27.234C1200.54 64.3546 1148.38 94.7976 1093.16 127.025C1065.92 142.927 1037.75 159.369 1009.25 176.562C971.232 199.778 925.909 228.299 878.065 263.841C827.701 301.255 781.505 341.261 736.843 386.15C683.669 439.899 633.856 499.817 588.782 564.234C535.804 639.954 487.471 724.566 445.133 815.711L448.417 818.371C526.434 650.413 624.262 506.351 739.178 390.193C840.067 288.791 932.316 229.131 1010.86 181.179C1039.33 164.003 1067.48 147.571 1094.72 131.671C1149.98 99.4161 1202.17 68.9496 1258.63 31.7883C1307.2 0.454566 1356.75 -34.3126 1419.48 -78.3393C1468.04 -112.407 1523.07 -151.027 1589.09 -196.011L1587.33 -200.533L1587.33 -200.528Z" fill="white"/>
<path d="M1152.3 1642.08C1198.34 1620.41 1243.56 1600.46 1287.3 1581.15C1347.02 1554.79 1408.78 1527.53 1472.35 1496.01C1556.12 1453.8 1653.64 1399.31 1760.29 1311.12C1783.53 1291.91 1807.21 1271.09 1831.27 1248.45C1902.15 1181.29 1968.85 1105.08 2029.52 1021.94C2100.88 924.143 2166.17 813.687 2223.57 693.659L2220.31 690.942C2114.37 912.488 1982.73 1098.67 1829.03 1244.32C1805.04 1266.89 1781.44 1287.64 1758.27 1306.8C1651.89 1394.76 1554.57 1449.14 1470.99 1491.25C1407.5 1522.74 1345.78 1549.99 1286.08 1576.33C1242.33 1595.64 1197.09 1615.61 1151.03 1637.28C1096.61 1662.26 1040.27 1689.89 975.039 1721.9C907.141 1755.21 830.181 1792.96 735.99 1837.24L737.285 1842.03C831.503 1797.74 908.475 1759.98 976.387 1726.67C1041.6 1694.67 1097.92 1667.04 1152.31 1642.08L1152.3 1642.08Z" fill="white"/>
<path d="M1512.61 1532.48C1578.58 1493.57 1637.78 1453.84 1693.61 1411C1709.57 1398.76 1725.24 1386.27 1740.69 1373.5C1789.65 1333.01 1836.28 1289.67 1882.09 1242.1C1950.22 1171.1 2014.79 1091.98 2074.01 1006.93C2141.13 910.534 2203.7 803.21 2259.99 687.936L2256.75 685.183C2151.17 901.388 2024.32 1087.42 1879.71 1238.11C1834.35 1285.2 1787.8 1328.51 1738.81 1369.02C1668.98 1426.76 1594.21 1478.79 1511.05 1527.83C1389.57 1598.81 1274.46 1650.05 1157.43 1700.59C1038.61 1751 903.344 1806.66 719.741 1872.05L720.745 1876.97C904.425 1811.54 1039.74 1755.86 1158.62 1705.43C1275.75 1654.84 1390.97 1603.55 1512.61 1532.48L1512.61 1532.48Z" fill="white"/>
<path d="M1559.4 1567.54C1610.7 1532.94 1659.86 1496.21 1707.24 1457.03C1789.04 1389.39 1865.53 1314.47 1938.48 1230.66C2003.35 1156.01 2065.36 1074.12 2122.77 987.25C2185.09 892.959 2243.85 790.012 2297.42 681.268L2294.19 678.495C2191.47 887.004 2070.94 1071.49 1935.95 1226.83C1863.14 1310.46 1786.83 1385.21 1705.19 1452.72C1657.91 1491.81 1608.84 1528.48 1557.65 1563C1437.94 1643.4 1312.96 1708.46 1164.32 1767.75C1022.6 1823.76 875.89 1868.17 702.632 1907.5L703.283 1912.51C876.701 1873.15 1023.55 1828.7 1165.43 1772.63C1314.3 1713.24 1439.48 1648.07 1559.4 1567.54Z" fill="white"/>
<path d="M2332.64 670.891C2147.94 1042.82 1927.71 1334.45 1673.41 1544.71C1386.41 1782.02 1056.01 1915.6 684.67 1943.62L684.891 1948.7C770.235 1942.26 854.435 1930.21 935.16 1912.87C1016.58 1895.39 1096.78 1872.04 1173.53 1843.47C1250.92 1814.66 1327.01 1779.71 1399.68 1739.61C1472.94 1699.18 1544.8 1652.36 1613.28 1600.44C1634.08 1584.67 1654.74 1568.31 1675.22 1551.38C1722.7 1512.12 1769.18 1469.84 1814.02 1425.12C1878.7 1360.61 1941.81 1289.17 2001.58 1212.78C2061.81 1135.81 2120.37 1051.64 2175.63 962.584C2231.31 872.875 2285.22 775.672 2335.86 673.681L2332.64 670.893L2332.64 670.891Z" fill="white"/>
<path d="M998.418 1572.71C1060.37 1523.39 1100.34 1494.44 1136.37 1472.8C1214.93 1424.39 1285.51 1408.26 1374.88 1387.84L1379.49 1386.79C1430.15 1374.61 1476.36 1362.87 1528.89 1342.51C1591.55 1318.21 1650.35 1286.12 1708.65 1244.38C1725.05 1232.56 1741.29 1220.01 1757.34 1206.74C1812.35 1161.24 1865.19 1107.37 1914.94 1045.98C1995 946.899 2064.09 832.282 2120.29 705.309L2116.97 702.741C2060.96 829.29 1992.1 943.522 1912.31 1042.26C1848.28 1121.27 1779.14 1187.77 1706.82 1239.91C1574.24 1334.82 1461.28 1361.96 1378.82 1381.78L1374.23 1382.83C1284.58 1403.32 1213.77 1419.5 1134.76 1468.18C1098.6 1489.9 1058.53 1518.92 996.44 1568.35C985.335 1577.15 973.79 1586.37 961.568 1596.13C914.416 1633.8 855.738 1680.68 779.57 1736.58L781.444 1741.03C857.669 1685.08 916.385 1638.18 963.563 1600.49C975.782 1590.72 987.327 1581.5 998.428 1572.71L998.418 1572.71Z" fill="white"/>
<path d="M990.999 1621.79C1056.17 1576.71 1101.15 1548.03 1141.43 1525.85C1221.32 1480.9 1294.2 1457.98 1378.6 1431.44C1387.63 1428.6 1396.97 1425.66 1406.41 1422.67C1451.9 1407.76 1505.23 1389.58 1562.55 1362.38C1626.5 1332.02 1686.23 1294.88 1745.13 1248.81C1751.8 1243.56 1758.44 1238.21 1765.05 1232.74C1830.16 1178.9 1892.33 1114.53 1950.11 1041.1C2028.41 941.352 2096.92 827.379 2153.73 702.329L2150.43 699.71C2093.79 824.375 2025.49 938.004 1947.43 1037.43C1884 1118.06 1815.28 1187.7 1743.17 1244.43C1615.94 1343.93 1506.59 1384.59 1405.5 1417.72C1396.08 1420.71 1386.75 1423.64 1377.71 1426.48C1293.14 1453.07 1220.11 1476.04 1139.94 1521.15C1099.57 1543.38 1054.49 1572.13 989.224 1617.26C974.813 1627.19 959.751 1637.67 943.8 1648.76C894.085 1683.36 837.731 1722.57 765.908 1769.49L767.617 1774.06C839.481 1727.11 895.858 1687.88 945.595 1653.27C961.541 1642.17 976.598 1631.69 991.007 1621.78L990.999 1621.79Z" fill="white"/>
<path d="M982.359 1673.66C1052.2 1632.43 1101.34 1605.09 1146.68 1582.23C1219.7 1544.73 1287.77 1518.09 1359.82 1489.89C1384.75 1480.13 1410.52 1470.05 1437.08 1459.28C1531.89 1419.68 1642.97 1368.8 1769 1264.59C1774.6 1259.96 1780.23 1255.23 1785.89 1250.38C1858.39 1187.71 1926.48 1114.64 1988.27 1033.2C2062.51 935.368 2129.75 822.744 2188.14 698.459L2184.87 695.777C2077.98 923.284 1943.04 1108.45 1783.79 1246.11C1651.18 1359.65 1534.7 1413.17 1435.93 1454.42C1409.41 1465.17 1383.65 1475.26 1358.73 1485C1286.59 1513.24 1218.45 1539.9 1145.29 1577.47C1099.89 1600.36 1050.7 1627.73 980.785 1669C964.629 1678.51 947.873 1688.45 930.131 1698.97C879.185 1729.21 821.441 1763.46 751.373 1803.04L752.891 1807.72C822.992 1768.12 880.752 1733.85 931.716 1703.61C949.454 1693.09 966.207 1683.14 982.359 1673.64L982.359 1673.66Z" fill="white"/>
<path d="M1578.07 -164.223C1519.32 -117.36 1471.25 -77.726 1428.84 -42.7603C1361.87 12.4497 1313.48 52.3392 1265.9 85.5363C1195.65 135.903 1128.73 169.248 1057.89 204.549C1052.09 207.436 1046.25 210.345 1040.35 213.297C998.767 234.489 957.826 255.785 914.161 283.232C863.862 314.851 817.629 349.979 772.821 390.624C717.874 440.86 666.387 498.638 619.798 562.352C563.976 638.686 513.439 725.877 469.593 821.49L472.891 824.123C553.112 649.195 654.758 504.751 775.01 394.81C877.728 301.627 968.67 255.279 1041.72 218.043C1047.61 215.104 1053.45 212.19 1059.25 209.303C1130.22 173.94 1197.25 140.537 1267.71 90.0169C1315.4 56.7423 1363.83 16.8147 1430.87 -38.4475C1473.28 -73.4037 1521.34 -113.023 1580.06 -159.872L1578.07 -164.228L1578.07 -164.223Z" fill="white"/>
<path d="M1569.57 -128.593C1509.77 -75.1712 1464.09 -31.5383 1423.78 6.95929C1412.62 17.6216 1402.07 27.6892 1391.94 37.2906C1340 86.7016 1306.01 116.65 1274.61 140.667C1208.01 192.357 1149.43 217.391 1067.65 249.687L1065.48 250.565C990.079 281.101 904.624 315.708 805.142 397.501C749.672 443.388 696.967 498.982 648.482 562.738C589.035 641.059 536.859 730.22 493.401 827.743L496.721 830.322C540.013 733.17 591.988 644.352 651.2 566.337C699.478 502.844 751.961 447.492 807.181 401.811C906.233 320.374 991.436 285.868 1066.61 255.428L1068.77 254.555C1107.07 239.432 1141.5 225.542 1175.1 208.734C1212.34 190.11 1244.58 169.874 1276.55 145.06C1308.05 120.961 1342.13 90.9318 1394.19 41.4205C1404.33 31.8209 1414.87 21.7451 1426.04 11.0797C1466.32 -27.3956 1511.98 -71.0044 1571.73 -124.381L1569.57 -128.593Z" fill="white"/>
<path d="M1542.96 7.17492C1474.33 92.4533 1431.93 156.44 1397.86 207.859C1395.24 211.8 1392.69 215.651 1390.18 219.431C1353.37 275.498 1330.49 308.282 1307.57 331.887C1260.42 381.69 1214.32 385.326 1149.35 385.188C1145.69 385.222 1141.98 385.247 1138.22 385.27C1076.29 385.656 999.221 386.135 904.276 440.722C848.018 473.391 793.62 520.984 742.595 582.193C712.66 618.231 684.51 658.266 658.925 701.194C630.13 749.502 604.24 802.083 581.971 857.481L585.375 859.864C627.523 755.034 681.293 662.875 745.193 585.956C795.906 525.125 849.951 477.824 905.823 445.382C1000.03 391.219 1076.67 390.742 1138.24 390.357C1142.01 390.336 1145.72 390.311 1149.36 390.274C1178.23 390.334 1208.71 389.755 1235.97 382.138C1256.76 376.331 1275.06 366.741 1292.3 352.489C1298.29 347.529 1304.16 342.006 1309.96 335.883C1333.11 312.039 1356.12 279.086 1393.09 222.78C1395.59 219.01 1398.15 215.152 1400.76 211.211C1434.78 159.88 1477.11 95.9905 1545.61 10.883L1542.97 7.17673L1542.96 7.17492Z" fill="white"/>
<path d="M866.751 1471.41C944.701 1373.62 984.939 1296.81 1014.32 1240.72C1016.34 1236.87 1018.31 1233.11 1020.26 1229.39C1051.26 1168.43 1070.95 1133.64 1092.55 1112.65C1112.65 1092.69 1134.82 1084.91 1162.34 1088.16C1187.19 1091.06 1214.43 1102.91 1245.98 1116.63L1248.38 1117.67C1283.99 1133.43 1319.47 1148.2 1361.75 1155.66C1413.89 1164.68 1463.22 1159.83 1512.53 1140.81C1542.29 1129.36 1572.07 1112.63 1601.04 1091.07C1607.35 1086.38 1613.63 1081.45 1619.87 1076.28C1645.28 1055.28 1670.09 1030.45 1693.85 1002.26C1741.75 945.462 1809.97 845.498 1862.99 691.794L1859.48 689.688C1806.74 842.598 1738.9 942.005 1691.28 998.475C1634.77 1065.53 1574.26 1111.78 1511.45 1135.94C1462.66 1154.75 1413.86 1159.55 1362.25 1150.63C1320.32 1143.23 1285.04 1128.54 1249.59 1112.85L1247.18 1111.8C1215.41 1097.98 1187.97 1086.05 1162.68 1083.1C1148.97 1081.48 1136.69 1082.55 1125.12 1086.35C1112.53 1090.5 1101.12 1097.77 1090.24 1108.57C1068.21 1129.99 1048.31 1165.11 1017.08 1226.53C1015.14 1230.22 1013.17 1233.98 1011.15 1237.83C981.865 1293.74 941.758 1370.3 864.095 1467.73L866.749 1471.42L866.751 1471.41Z" fill="white"/>
<path d="M860.679 1498.95C941.43 1402.14 984.076 1326.34 1015.21 1270.98C1017.19 1267.47 1019.13 1264.02 1021.05 1260.62C1054.16 1200.14 1075 1165.58 1097 1144.48C1141.47 1101.67 1186.38 1115.86 1255.96 1142.56C1292.32 1156.51 1328.53 1169.5 1371.62 1175.19C1424.99 1182.07 1475.41 1175.54 1525.78 1155.23C1556.31 1142.95 1586.82 1125.47 1616.5 1103.3C1623 1098.44 1629.47 1093.35 1635.9 1088.03C1662 1066.45 1687.51 1041.11 1711.97 1012.45C1782.96 929.298 1843.75 820.157 1887.76 696.817L1884.28 694.649C1840.48 817.369 1780.02 925.948 1709.41 1008.65C1651.3 1076.73 1589.14 1124.41 1524.65 1150.38C1474.78 1170.49 1424.84 1176.95 1372 1170.14C1329.23 1164.49 1293.21 1151.57 1257.03 1137.69C1221.43 1124.03 1194.26 1114.22 1168.61 1112.46C1140.02 1110.5 1116.55 1119.37 1094.73 1140.38C1072.3 1161.87 1051.27 1196.73 1017.94 1257.62C1016.03 1261 1014.1 1264.44 1012.12 1267.96C981.073 1323.14 938.557 1398.71 858.083 1495.19L860.674 1498.96L860.679 1498.95Z" fill="white"/>
<path d="M1538.18 39.4046C1469.85 129.759 1429.72 196.472 1397.48 250.074C1395.58 253.221 1393.73 256.31 1391.89 259.356C1361.63 310.267 1338.45 348.228 1315.58 373.184C1272.19 421.891 1227.53 421.722 1164.32 415.903C1160.96 415.631 1157.56 415.348 1154.1 415.059C1093.24 409.974 1017.51 403.649 922.942 453.918C867.1 483.912 812.907 529.852 761.871 590.464C731.96 626.122 703.901 665.989 678.474 708.957C649.802 757.41 624.22 810.28 602.432 866.106L605.859 868.435C647.088 762.797 700.448 670.539 764.454 594.239C815.157 534.03 868.973 488.401 924.391 458.631C1018.14 408.796 1093.39 415.083 1153.86 420.137C1157.32 420.426 1160.73 420.71 1164.07 420.982C1193.49 423.69 1222.04 425.651 1248.04 419.994C1267.42 415.78 1284.38 407.521 1300.16 394.477C1306.28 389.416 1312.23 383.629 1318.06 377.083C1341.19 351.823 1364.51 313.661 1394.91 262.514C1396.74 259.477 1398.6 256.385 1400.49 253.237C1432.67 199.734 1472.73 133.147 1540.91 42.9977L1538.18 39.4046Z" fill="white"/>
<path d="M871.99 1444.47C946.779 1346.37 984.82 1268.88 1012.59 1212.29C1014.74 1207.92 1016.83 1203.66 1018.9 1199.47C1047.39 1139.58 1066.86 1103.18 1088.18 1082.34C1107.49 1063.01 1130 1055.78 1157 1060.23C1181.35 1064.19 1207.89 1077.15 1238.61 1092.16L1242.04 1093.84C1277.05 1111.24 1311.91 1127.59 1353.37 1136.55C1404.34 1147.42 1452.56 1143.98 1500.77 1126.06C1529.74 1115.33 1558.73 1099.22 1586.94 1078.19C1592.72 1073.87 1598.47 1069.36 1604.2 1064.62C1629.19 1043.95 1653.58 1019.32 1676.9 991.178C1723.04 935.552 1788.64 837.435 1839.15 685.917L1835.62 683.869C1785.39 834.579 1720.16 932.126 1674.29 987.427C1619.51 1053.56 1560.78 1098.56 1499.72 1121.17C1452.06 1138.89 1404.39 1142.28 1353.98 1131.54C1312.88 1122.65 1278.22 1106.38 1243.39 1089.07L1239.95 1087.39C1208.99 1072.27 1182.26 1059.22 1157.47 1055.18C1129.44 1050.57 1106.01 1058.13 1085.87 1078.27C1064.08 1099.58 1044.38 1136.36 1015.66 1196.73C1013.6 1200.89 1011.51 1205.16 1009.36 1209.53C981.686 1265.92 943.776 1343.15 869.281 1440.87L871.998 1444.48L871.99 1444.47Z" fill="white"/>
<path d="M1534.16 70.9391C1466.95 165.154 1427.54 236.9 1398.77 289.288C1397.28 292.005 1395.81 294.681 1394.35 297.33C1365.31 350.974 1344.69 387.953 1323.5 412.231C1283.18 459.849 1239.54 456.238 1177.56 445.291C1174.54 444.796 1171.48 444.281 1168.38 443.761C1108.37 433.693 1033.7 421.167 939.623 467.667C884.375 495.271 830.583 539.722 779.739 599.779C749.995 635.058 722.157 674.715 697.005 717.653C668.604 766.136 643.438 819.149 622.22 875.218L625.669 877.493C665.835 771.371 718.537 679.205 782.31 603.564C832.798 543.928 886.184 499.806 940.982 472.427C1034.16 426.365 1108.31 438.807 1167.89 448.802C1170.99 449.322 1174.06 449.84 1177.07 450.331C1231.33 459.916 1271.79 463.936 1308.5 433.583C1314.43 428.678 1320.27 422.868 1326.05 416.04C1347.54 391.418 1368.29 354.218 1397.47 300.294C1398.93 297.66 1400.4 294.983 1401.89 292.266C1430.6 239.991 1469.93 168.401 1536.97 74.4224L1534.16 70.9358L1534.16 70.9391Z" fill="white"/>
<path d="M837.422 1585.12C923.08 1493.29 975.106 1422.84 1013.09 1371.39C1015.13 1368.63 1017.13 1365.92 1019.11 1363.24C1057.65 1310.41 1084.92 1274.02 1111.81 1250.62C1163.02 1204.27 1211.9 1210.49 1287.41 1224.48L1292.24 1225.31C1328.19 1231.51 1368.93 1238.54 1415.88 1236.8C1470.25 1234.79 1522.57 1221.29 1575.85 1195.51C1613.32 1177.18 1650.18 1153.03 1686.13 1123.31C1716.32 1098.34 1745.89 1069.42 1774.62 1036.72C1811.81 994.185 1846.26 946.677 1877.02 895.512C1912.06 837.226 1942.59 773.669 1967.77 706.604L1964.32 704.345C1916.87 830.729 1852.2 941.264 1772.1 1032.88C1709.52 1104.1 1643.03 1157.22 1574.51 1190.74C1455.46 1248.34 1365.23 1232.77 1292.73 1220.27L1287.92 1219.44C1250.63 1212.53 1219.83 1207.43 1191.18 1209.87C1160.18 1212.5 1134.27 1224.13 1109.65 1246.4C1082.45 1270.07 1055.04 1306.63 1016.34 1359.7C1014.36 1362.37 1012.36 1365.08 1010.32 1367.84C972.4 1419.2 920.466 1489.53 834.981 1581.17L837.412 1585.12L837.422 1585.12Z" fill="white"/>
<path d="M876.402 1418.11C947.749 1320.33 983.8 1242.46 1010.12 1185.6C1012.48 1180.52 1014.76 1175.58 1017.02 1170.74C1043.3 1112.14 1062.68 1074.16 1084.02 1053.39C1103.05 1034.43 1125.43 1027.94 1152.43 1033.57C1176.45 1038.52 1202.43 1052.47 1232.5 1068.64L1236.84 1070.97C1271.35 1089.82 1305.7 1107.59 1346.34 1117.84C1396.18 1130.27 1443.28 1128.03 1490.35 1111.01C1518.5 1100.88 1546.66 1085.3 1574.06 1064.71C1579.04 1060.96 1584.01 1057.04 1588.95 1052.96C1613.77 1032.43 1637.94 1007.72 1660.99 979.284C1691.08 942.254 1719.27 898.947 1744.78 850.553C1772.49 798.006 1796.53 740.349 1816.24 679.172L1812.69 677.18C1764.84 825.697 1702.36 921.415 1658.37 975.565C1606.18 1039.95 1547.73 1085.09 1489.33 1106.1C1442.85 1122.92 1396.3 1125.13 1347.06 1112.84C1306.78 1102.68 1272.64 1085.01 1238.3 1066.26L1233.95 1063.93C1203.66 1047.65 1177.5 1033.59 1153.03 1028.54C1124.94 1022.7 1101.61 1029.49 1081.73 1049.31C1059.88 1070.58 1040.24 1108.99 1013.73 1168.11C1011.49 1172.92 1009.2 1177.86 1006.84 1182.95C980.612 1239.61 944.688 1317.2 873.634 1414.59L876.41 1418.12L876.402 1418.11Z" fill="white"/>
<path d="M1561.8 -93.6304C1498.4 -30.9829 1451.15 20.3033 1413.18 61.5126C1405.12 70.2619 1397.51 78.5266 1390.12 86.4858C1349.14 130.926 1315.24 165.993 1283.02 192.71C1221.24 244.84 1164.83 263.95 1091.89 285.249C1089.03 286.115 1086.15 286.986 1083.25 287.86C1049.15 298.155 1010.5 309.816 969.043 327.733C921.5 348.28 877.367 373.988 834.118 406.317C777.982 448.589 724.411 502.031 674.88 565.161C613.503 643.575 560.23 734.178 516.547 834.452L519.885 836.989C563.388 737.125 616.44 646.902 677.556 568.817C726.854 505.985 780.17 452.796 836.023 410.738C932.591 338.544 1013.09 314.249 1084.11 292.815C1087.01 291.938 1089.9 291.066 1092.74 290.205C1166.05 268.794 1222.76 249.588 1285.09 196.997C1317.47 170.15 1351.47 134.97 1392.57 90.4106C1399.95 82.4463 1407.57 74.1834 1415.64 65.4309C1453.57 24.2552 1500.78 -26.989 1564.12 -89.571L1561.81 -93.6449L1561.8 -93.6304Z" fill="white"/>
<path d="M846.002 1555.82C930.929 1463.31 978.889 1390.67 1013.9 1337.63C1016.18 1334.18 1018.41 1330.8 1020.62 1327.46C1058.62 1268.68 1082.33 1234.86 1106.51 1213.2C1155.62 1168.7 1202.65 1177.63 1275.29 1195.87C1305.95 1203.55 1347.95 1214.07 1396.5 1215.57C1452.44 1217.13 1505.07 1206.4 1557.4 1182.79C1595.39 1165.65 1632.6 1142.02 1668.71 1112.16C1697.26 1088.55 1725.13 1061.04 1752.16 1029.76C1787.59 988.726 1820.96 941.778 1851.35 890.218C1884.95 833.22 1914.82 770.647 1940.14 704.242L1936.7 701.956C1888.76 827.667 1824.07 939.697 1749.62 1025.93C1688.79 1096.33 1623.7 1147.48 1556.15 1177.97C1504.25 1201.39 1452.05 1212.02 1396.59 1210.48C1348.36 1208.99 1306.54 1198.51 1276.01 1190.86C1240.09 1181.84 1210.44 1175.01 1183.2 1175.91C1153.23 1176.89 1128.17 1187.41 1104.33 1208.99C1079.8 1230.98 1055.9 1265.02 1017.7 1324.13C1015.51 1327.44 1013.27 1330.82 1010.99 1334.28C976.064 1387.18 928.232 1459.64 843.549 1551.88L846 1555.81L846.002 1555.82Z" fill="white"/>
<path d="M1530.89 101.775C1465.51 198.697 1428.47 272.1 1401.42 325.701C1400.1 328.33 1398.79 330.916 1397.49 333.485C1370.48 387.937 1351.27 425.411 1331.28 449.209C1293.39 495.774 1250.43 489.016 1189.19 473.385C1186.51 472.731 1183.78 472.061 1181.03 471.383C1121.71 456.789 1047.88 438.619 954.476 481.848C899.973 507.346 846.754 550.468 796.292 610.033C766.847 644.938 739.351 684.368 714.561 727.225C686.552 775.654 661.906 828.681 641.309 884.83L644.778 887.046C683.234 782.204 736.517 687.721 798.867 613.815C848.949 554.699 901.738 511.911 955.76 486.641C1048.19 443.866 1121.46 461.892 1180.33 476.38C1183.08 477.055 1185.8 477.728 1188.47 478.378C1217.13 485.694 1244.86 492.074 1269.13 489.835C1287.33 488.156 1302.98 481.753 1317.17 470.024C1322.96 465.236 1328.51 459.562 1333.88 452.956C1354.2 428.778 1373.54 391.055 1400.71 336.287C1402 333.739 1403.3 331.147 1404.63 328.518C1431.61 275.046 1468.57 201.807 1533.77 105.156L1530.89 101.773L1530.89 101.775Z" fill="white"/>
<path d="M853.763 1527.08C936.869 1432.02 982.101 1357.58 1015.13 1303.24C1017.18 1299.86 1019.2 1296.55 1021.19 1293.27C1056.64 1233.51 1078.82 1199.26 1101.7 1177.94C1148.2 1134.28 1194.01 1145.95 1264.88 1168.61C1302.13 1180.51 1339.2 1191.5 1383.15 1195.18C1437.77 1199.58 1489.3 1191.1 1540.67 1169.26C1571.92 1155.99 1603.14 1137.66 1633.45 1114.77C1639.73 1110.03 1645.98 1105.09 1652.21 1099.94C1679.35 1077.5 1705.9 1051.25 1731.36 1021.66C1765.92 981.498 1798.42 935.313 1827.95 884.387C1860.53 828.195 1889.3 766.49 1913.48 700.975L1910.02 698.748C1864.14 823.052 1801.48 933.402 1728.82 1017.85C1669.27 1087.04 1605.57 1136.36 1539.5 1164.42C1488.59 1186.06 1437.52 1194.46 1383.39 1190.11C1339.76 1186.45 1302.87 1175.51 1265.79 1163.67C1230.7 1152.45 1201.77 1143.83 1175.47 1143.35C1146.32 1142.81 1122.17 1152.48 1099.48 1173.8C1076.21 1195.47 1053.83 1229.98 1018.17 1290.11C1016.19 1293.36 1014.18 1296.68 1012.12 1300.06C979.187 1354.26 934.082 1428.47 851.24 1523.24L853.765 1527.09L853.763 1527.08Z" fill="white"/>
<path d="M1554.78 -59.3458C1488.54 11.9753 1442.38 68.324 1405.29 113.598C1399.7 120.42 1394.43 126.861 1389.25 133.146C1349.87 181.335 1319.75 216.318 1291.29 241.826C1234.83 293.46 1181.94 306.711 1113.37 319.796C1109.71 320.535 1106.01 321.278 1102.26 322.025C1069.61 328.551 1032.61 335.947 992.347 349.77C946.067 365.664 902.811 387.547 860.108 416.685C803.66 455.514 749.538 506.882 699.252 569.367C636.47 647.593 582.562 739.202 539.025 841.657L542.388 844.145C585.731 742.14 639.4 650.94 701.897 573.07C751.926 510.911 805.757 459.811 861.887 421.202C957.221 356.159 1037.96 340.024 1102.84 327.058C1106.59 326.307 1110.3 325.564 1113.95 324.83C1178.07 312.59 1228.62 300.191 1281.26 256.664C1285.32 253.309 1289.39 249.764 1293.48 246.028C1322.12 220.351 1352.37 185.232 1391.87 136.89C1397.05 130.604 1402.32 124.163 1407.91 117.339C1444.97 72.1096 1491.08 15.8236 1557.22 -55.3946L1554.79 -59.3339L1554.78 -59.3458Z" fill="white"/>
<path d="M1548.5 -25.7424C1480.52 53.1869 1436.04 113.756 1400.3 162.424C1396.54 167.56 1392.87 172.549 1389.28 177.411C1350.67 230.305 1324.93 263.622 1299.47 288.157C1248.02 338.893 1197.8 347.089 1132.44 353.133C1128.63 353.526 1124.76 353.92 1120.84 354.316C1057.53 360.705 978.734 368.66 883.415 428.232C826.941 463.848 772.557 513.266 721.779 575.097C658.065 652.936 603.915 745.198 560.844 849.322L564.225 851.759C607.097 748.117 660.99 656.295 724.392 578.834C774.887 517.342 828.95 468.218 885.07 432.824C979.738 373.663 1058.14 365.745 1121.13 359.386C1125.06 358.992 1128.93 358.597 1132.73 358.2C1191.96 352.724 1238.92 345.476 1285.72 306.777C1291.06 302.358 1296.41 297.527 1301.76 292.244C1327.43 267.504 1353.3 234.037 1392.06 180.944C1395.63 176.088 1399.3 171.1 1403.07 165.96C1438.76 117.36 1483.18 56.8691 1551.05 -21.9251L1548.5 -25.7455L1548.5 -25.7424Z" fill="white"/>
</g>
</svg>
